<?xml version="1.0" encoding="UTF-8" standalone="no"?>
<!-- Created with Inkscape (http://www.inkscape.org/) -->

<svg
   width="1200.0001mm"
   height="400mm"
   viewBox="0 0 1200.0001 400"
   version="1.1"
   id="svg1"
   xml:space="preserve"
   inkscape:version="1.3.2 (091e20e, 2023-11-25, custom)"
   sodipodi:docname="Original.svg"
   xmlns:inkscape="http://www.inkscape.org/namespaces/inkscape"
   xmlns:sodipodi="http://sodipodi.sourceforge.net/DTD/sodipodi-0.dtd"
   xmlns:xlink="http://www.w3.org/1999/xlink"
   xmlns="http://www.w3.org/2000/svg"
   xmlns:svg="http://www.w3.org/2000/svg"><sodipodi:namedview
     id="namedview1"
     pagecolor="#ffffff"
     bordercolor="#000000"
     borderopacity="0.25"
     inkscape:showpageshadow="2"
     inkscape:pageopacity="0.0"
     inkscape:pagecheckerboard="0"
     inkscape:deskcolor="#d1d1d1"
     inkscape:document-units="mm"
     inkscape:zoom="0.17794788"
     inkscape:cx="3461.6877"
     inkscape:cy="2506.3518"
     inkscape:window-width="2400"
     inkscape:window-height="1284"
     inkscape:window-x="-5"
     inkscape:window-y="-9"
     inkscape:window-maximized="1"
     inkscape:current-layer="layer1" /><defs
     id="defs1"><linearGradient
       id="linearGradient11"
       inkscape:collect="always"><stop
         style="stop-color:#fcb200;stop-opacity:1;"
         offset="0.42630744"
         id="stop11" /><stop
         style="stop-color:#c6a700;stop-opacity:0;"
         offset="1"
         id="stop13" /></linearGradient><linearGradient
       inkscape:collect="always"
       xlink:href="#linearGradient11"
       id="linearGradient12"
       x1="600"
       y1="0"
       x2="648.27032"
       y2="400"
       gradientUnits="userSpaceOnUse"
       gradientTransform="translate(0,548.65081)" /></defs><g
     inkscape:label="Layer 1"
     inkscape:groupmode="layer"
     id="layer1"
     transform="translate(7.9999999e-5,-548.65082)"><rect
       style="fill:url(#linearGradient12);fill-opacity:1;stroke:#000000;stroke-width:0;stroke-dasharray:none"
       id="rect10"
       width="1200"
       height="400"
       x="0"
       y="548.65082"
       inkscape:export-filename="..\..\..\..\Option 1 Header.png"
       inkscape:export-xdpi="96"
       inkscape:export-ydpi="96" /><path
       id="path1"
       style="fill:#5e1a1a;fill-opacity:1;stroke-width:5.69193"
       d="m 847.8272,594.74409 v 27.82672 27.82672 l -27.48411,0.41032 -27.48463,0.41031 v 14.30713 14.30662 l 27.50272,0.41031 27.50323,0.41083 -0.39274,55.31084 -0.39275,55.31083 -4.51807,0.47956 c -2.48508,0.26342 -14.49588,2.46571 -26.69139,4.89428 -12.19494,2.42852 -22.88356,4.41575 -23.751,4.41575 -1.06154,0 -1.44266,-9.7556 -1.16944,-29.74341 l 0.40979,-29.7434 15.00064,-0.22014 15.00011,-0.22014 v -7.93699 -7.93698 l -15.00011,-0.35347 -15.00064,-0.35398 -0.42685,-15.20889 -0.42684,-15.20838 h -8.23051 -8.22999 l -5.1e-4,15.43627 -0.001,15.43627 h -14.68282 -14.68283 l -0.45527,7.90649 -0.45527,7.9065 h 15.13862 15.13861 v 31.38671 31.38723 l -19.95434,1.84123 c -10.97517,1.01265 -24.02035,2.44809 -28.98996,3.18947 -4.97019,0.74132 -19.5409,2.417 -32.37942,3.72381 -12.83853,1.30687 -29.10303,3.33862 -36.14353,4.51497 -7.04052,1.17636 -27.03259,2.57361 -44.42675,3.10523 -36.43148,1.11357 -46.30622,2.74911 -68.14106,11.28614 -13.44733,5.25763 -18.89921,6.5091 -36.33835,8.34161 -23.70679,2.49113 -34.15614,4.88349 -49.88429,11.42152 -10.72192,4.45706 -12.70836,4.75433 -39.15575,5.85856 -15.3234,0.63983 -30.11639,1.8647 -32.87345,2.7218 -2.75698,0.85707 -10.21173,4.4576 -16.56591,8.00106 l -11.5533,6.4425 -24.09569,0.13901 c -21.19438,0.12225 -29.17344,0.97965 -66.26365,7.12101 -23.19225,3.84011 -53.01098,8.00275 -66.26366,9.25008 -13.25267,1.24733 -28.16159,3.33556 -33.13131,4.64055 -3.58159,0.94042 -7.2231,1.90381 -10.5823,2.79259 l 5.2e-4,-0.005 -59.35504,14.01775 -32.8967,4.83226 -23.41821,2.41639 -22.11699,2.41587 -13.56765,1.65107 -5.94744,1.50843 v 23.8249 h 152.76432 466.16018 465.03568 6.2937 H 1200 v -65.66472 l -25.0966,-1.05162 -28.1239,-3.15381 -31.5412,-6.83421 -24.9845,-9.74152 v -0.14831 l -15.2606,-5.87406 c -1.387,-0.53384 -2.3273,-0.84882 -3.6158,-1.33739 l -3.4349,-1.33945 0.012,0.0734 c -17.8209,-6.62799 -27.4463,-9.13967 -48.4451,-12.6938 -12.01,-2.0328 -27.2578,-5.35311 -33.8843,-7.37836 -6.6265,-2.0253 -15.0975,-4.08927 -18.8252,-4.58732 -3.727,-0.49787 -8.9794,-1.23927 -11.6711,-1.64796 l -4.8948,-0.74207 v -33.06329 -33.06361 h 15.0601 15.06 v -8.28322 -8.2827 h -15.06 -15.0601 V 728.0238 712.21082 h -8.2827 -8.2827 v 15.81298 15.81299 H 918.608 903.5485 v 8.2827 8.28322 h 15.0595 15.0606 v 32.57113 32.57114 l -6.3371,-1.01286 c -9.2698,-1.48228 -18.126,-5.77413 -35.34353,-17.12711 l -15.32516,-10.10585 -0.11421,-58.35664 -0.108,-58.35716 h 27.1079 27.1079 v -15.06007 -15.06006 h -27.1079 -27.1079 v -27.86031 -27.86083 h -14.30714 z" /><path
       id="path2"
       style="fill:#ffffff;stroke:#000000;stroke-width:0;stroke-dasharray:none"
       d="m 224.01147,737.17251 13.76662,21.52259 -14.27858,21.18022 249.09906,-2.98869 -13.19149,-17.83911 16.22013,-21.64232 z m 146.49604,5.71143 c 0.58478,-0.0129 1.01388,0.12287 1.28986,0.40915 0.28757,0.27406 0.43939,0.74607 0.45548,1.41294 0.0193,0.83066 -0.10744,1.62458 -0.38214,2.38029 -0.26312,0.74375 -0.62852,1.3524 -1.09706,1.8318 -0.46898,0.4677 -0.95636,0.70946 -1.45944,0.72143 h -0.0515 c -1.1006,-0.006 -1.66492,-0.65458 -1.69548,-1.94149 -0.0129,-0.64352 0.12609,-1.39087 0.42202,-2.2407 0.30751,-0.86186 0.66076,-1.50235 1.06052,-1.92154 0.20522,-0.22709 0.4098,-0.38985 0.61824,-0.48893 0.22001,-0.0991 0.50179,-0.15504 0.84108,-0.16276 z m -58.30123,1.34976 c 0.63175,-0.0129 1.21119,0.16984 1.73537,0.55519 0.52431,0.37377 0.93263,0.91036 1.2301,1.60567 0.29721,0.6953 0.45869,1.46974 0.47863,2.32381 0.045,1.83682 -0.27727,3.64012 -0.96074,5.41229 -0.67201,1.77184 -1.63591,3.31678 -2.89232,4.63424 -0.59379,0.63432 -1.16885,1.13509 -1.72205,1.4994 -0.55326,0.36412 -1.03826,0.55197 -1.45944,0.56162 -0.40916,0.0129 -0.62081,-0.14282 -0.62853,-0.45869 -0.004,-0.17563 0.14282,-0.5153 0.43553,-1.01394 0.39436,-0.65317 0.8506,-1.63379 1.36964,-2.94546 0.045,-0.12995 0.0914,-0.26698 0.14603,-0.40915 0.0579,-0.15376 0.1203,-0.35898 0.19622,-0.61824 0.43681,-1.33316 0.7954,-2.72235 1.07711,-4.16887 0.28114,-1.45828 0.41366,-2.57561 0.39565,-3.34779 -0.005,-0.21037 -0.0656,-0.31201 -0.18271,-0.30944 -0.1872,0.004 -0.50629,0.43296 -0.95411,1.28652 -0.4484,0.84179 -0.81837,1.69992 -1.11366,2.57317 -0.63367,1.92309 -1.1217,3.51814 -1.46613,4.79057 -0.3326,1.2604 -0.56163,2.32079 -0.68148,3.17815 -0.1203,0.85742 -0.16726,1.73054 -0.14603,2.61968 0.0193,0.76047 0.11065,1.31515 0.28242,1.66229 0.18399,0.34675 0.46319,0.51401 0.8378,0.50501 0.64345,-0.0129 1.3587,-0.31395 2.14092,-0.89429 0.78196,-0.59186 1.48286,-1.35767 2.10444,-2.29718 0.48635,-0.70219 0.86945,-1.05383 1.15026,-1.06052 0.36284,-0.006 0.55133,0.27148 0.56548,0.84443 0.0322,1.25184 -0.33517,2.48484 -1.09043,3.69679 -0.75559,1.21196 -1.74309,2.20718 -2.96547,2.98541 -1.21093,0.7662 -2.45968,1.16294 -3.74665,1.19343 -1.57943,0.0386 -2.87823,-0.42845 -3.89629,-1.39955 -1.01806,-0.9709 -1.54771,-2.25691 -1.58573,-3.85975 -0.0322,-1.31032 0.21487,-2.84941 0.73467,-4.61765 0.51981,-1.77995 1.22727,-3.5718 2.12104,-5.37233 0.90516,-1.81257 1.89993,-3.45613 2.98869,-4.93352 1.0887,-1.4774 2.17656,-2.61595 3.25799,-3.41425 0.66661,-0.51916 1.41332,-0.78814 2.24398,-0.80782 z m -21.77857,0.51852 c 1.31032,-0.0322 2.49565,0.0515 3.55385,0.24961 1.06991,0.19685 1.98337,0.50758 2.74268,0.93417 0.75906,0.41494 1.33792,0.92831 1.73872,1.53921 0.41237,0.61052 0.63045,1.29739 0.64827,2.05787 0.0257,1.06463 -0.17691,2.01785 -0.60151,2.85906 -0.42459,0.84121 -1.10568,1.63546 -2.04782,2.38364 -1.04579,0.82082 -2.0405,1.36906 -2.98207,1.64891 -0.10422,0.0386 -0.28563,0.0785 -0.54168,0.11965 l 0.003,0.0862 c 4.11907,0.4291 6.21193,2.0771 6.27993,4.94349 0.0129,0.5732 -0.0721,1.17375 -0.25604,1.79854 -0.17241,0.62467 -0.43746,1.2395 -0.79785,1.84506 -0.34868,0.60536 -0.77682,1.15869 -1.27996,1.66228 -1.08561,1.11443 -2.38249,2.15925 -3.89295,3.13164 -1.49868,0.97206 -3.01378,1.76039 -4.54456,2.37032 -1.53073,0.60987 -2.84639,0.928 -3.94609,0.95412 -0.92426,0.0193 -1.81385,-0.0643 -2.67288,-0.25283 -0.84739,-0.19042 -1.52648,-0.45547 -2.03792,-0.79457 -0.51145,-0.32745 -0.7718,-0.68932 -0.78126,-1.08709 -0.006,-0.36283 0.0811,-0.70334 0.27277,-1.02391 0.20329,-0.32102 0.57514,-0.72245 1.11366,-1.20347 l -0.0733,-0.0663 c -0.3133,0.12481 -0.62016,0.18914 -0.9242,0.19621 -0.64345,0.0129 -1.16911,-0.16018 -1.57575,-0.52495 -0.40658,-0.36476 -0.61631,-0.86913 -0.63175,-1.51258 -0.006,-0.36284 0.13253,-1.20681 0.4291,-2.53663 0.29593,-1.34152 0.64956,-2.72602 1.06052,-4.1522 l 1.90495,-6.3664 c 0.37055,-1.14428 0.82364,-2.26135 1.35966,-3.35107 -0.0579,0.0129 -0.19107,0.0811 -0.39886,0.20264 -0.79946,0.34675 -1.36951,0.52367 -1.70873,0.53203 -0.47992,0.0129 -0.72278,-0.16598 -0.7314,-0.52881 -0.006,-0.38599 0.16469,-0.94459 0.52174,-1.67882 0.35704,-0.73429 0.71801,-1.28735 1.08374,-1.65894 0.83549,-0.80415 2.12072,-1.45713 3.85306,-1.9548 1.74412,-0.49793 3.69667,-0.76974 5.86107,-0.82114 z m -0.69813,3.82649 c -0.4677,0.0129 -0.81162,0.0901 -1.03061,0.2361 l -2.08109,7.73938 c 0.14089,0.0193 0.28178,0.0257 0.42202,0.0257 0.62017,-0.0129 1.33226,-0.31845 2.13764,-0.91088 1.01259,-0.73809 1.78799,-1.51651 2.33044,-2.33713 0.5539,-0.83253 0.82281,-1.63469 0.80454,-2.40687 -0.0386,-1.60284 -0.8984,-2.38377 -2.58314,-2.34376 z m 132.33043,0.26569 c 0.74877,-0.0193 1.45752,0.14024 2.12104,0.47542 0.66352,0.33517 1.19246,0.79051 1.59242,1.36635 0.3995,0.5642 0.60923,1.18642 0.62467,1.865 0.0129,0.66687 -0.17756,1.36076 -0.58157,2.08443 -0.40401,0.72368 -0.92381,1.33355 -1.55588,1.82846 -0.6208,0.48313 -1.21858,0.73107 -1.79185,0.74471 -0.32745,0.006 -0.61501,-0.0579 -0.86437,-0.18978 -0.23738,-0.1351 -0.35833,-0.28499 -0.36219,-0.44904 -0.004,-0.16405 0.0386,-0.40337 0.12288,-0.72143 0.23352,-1.01227 0.34353,-1.89413 0.32552,-2.64296 -0.0193,-0.73706 -0.25797,-1.42651 -0.71808,-2.07112 -0.56355,0.41173 -0.93044,0.7359 -1.10041,0.97406 -0.43231,0.52559 -0.76388,1.11758 -0.99399,1.77859 -0.25347,0.67324 -0.37313,1.30827 -0.35898,1.90495 0.0129,0.42138 0.11258,0.75764 0.30558,1.0106 0.20458,0.24124 0.52688,0.44325 0.96408,0.60858 0.44904,0.16469 1.12048,0.34225 2.01464,0.53203 1.49444,0.32745 2.54846,0.65587 3.16489,0.98075 0.14218,0.0785 0.36284,0.24124 0.6616,0.49214 0.45611,0.46898 0.69337,1.08465 0.71145,1.84505 0.0193,0.80731 -0.21487,1.63083 -0.69814,2.47346 -0.48377,0.83091 -1.23852,1.69728 -2.27067,2.59973 -1.1006,0.97432 -2.20274,1.68178 -3.3045,2.1177 -1.10176,0.43617 -2.32478,0.6695 -3.67023,0.70141 -1.29861,0.0322 -2.33076,-0.20458 -3.09175,-0.70141 -0.74928,-0.49729 -1.13244,-1.18867 -1.15354,-2.07781 -0.0129,-0.63175 0.21551,-1.27642 0.69144,-1.93152 0.47606,-0.66687 1.06959,-1.21228 1.78523,-1.63899 0.7274,-0.42717 1.44233,-0.64822 2.14433,-0.66488 0.52623,-0.0129 0.79231,0.0984 0.79785,0.3326 0.003,0.11708 -0.0669,0.30879 -0.21294,0.58156 -0.43682,0.82983 -0.64802,1.5903 -0.63175,2.28059 0.0129,0.4915 0.20522,0.95701 0.57835,1.39299 0.68945,-0.0515 1.30846,-0.40208 1.85502,-1.04727 0.55777,-0.65703 0.82565,-1.35889 0.80789,-2.10766 -0.0129,-0.51466 -0.19235,-0.92066 -0.53846,-1.21678 -0.3712,-0.35383 -1.19157,-0.68964 -2.46342,-1.01066 -1.87297,-0.49408 -3.09947,-1.0685 -3.67685,-1.72205 -0.53911,-0.5256 -0.8167,-1.16281 -0.83446,-1.91157 -0.0322,-1.34545 0.42074,-2.70396 1.35973,-4.0725 0.95084,-1.36874 2.17952,-2.49745 3.6802,-3.38762 1.50036,-0.90187 3.02015,-1.36957 4.56445,-1.40624 z m -16.87168,0.83774 c 1.46247,-0.0322 2.58198,0.18978 3.35442,0.67491 0.78408,0.48506 1.18622,1.23119 1.21009,2.23735 0.0193,0.84237 -0.28692,1.89227 -0.9242,3.1483 0.48056,0.0257 0.83516,0.16469 1.06386,0.42909 0.22838,0.25219 0.34933,0.66179 0.3622,1.22341 0.0193,0.91256 -0.13639,2.18962 -0.4722,3.8364 -0.33582,1.63514 -0.7579,3.15126 -1.2633,4.54457 -0.61373,1.75878 -1.51323,3.29523 -2.69945,4.61102 -0.90123,0.99304 -2.02853,1.8504 -3.38099,2.57317 -1.3522,0.73448 -2.5179,1.11366 -3.50065,1.13695 -0.81901,0.0193 -1.55838,-0.29079 -2.2174,-0.93083 -0.65909,-0.64011 -0.99786,-1.36854 -1.01729,-2.18749 -0.0129,-0.55004 0.11258,-1.12543 0.37892,-1.72874 0.26697,-0.59186 0.61952,-1.1042 1.05382,-1.53594 0.89062,-0.94588 2.20924,-1.85676 3.95612,-2.72936 0.3236,-0.17177 0.57256,-0.25862 0.748,-0.26248 0.0701,-0.002 0.13638,0.0257 0.19621,0.083 0.0579,0.0579 0.0914,0.12287 0.0933,0.193 0.002,0.0817 -0.065,0.24124 -0.19943,0.47863 -0.3371,0.60472 -0.63046,1.36989 -0.87768,2.30052 -0.24704,0.94235 -0.36155,1.75499 -0.34547,2.43351 0.0193,0.79559 0.1499,1.18937 0.39564,1.18352 0.12867,-0.003 0.285,-0.15183 0.46577,-0.44904 0.19236,-0.28564 0.35833,-0.61116 0.50179,-0.9774 0.9345,-2.55072 1.51896,-4.90509 1.74869,-7.06447 0.0257,-0.31652 0.0515,-0.79361 0.0701,-1.42625 l -0.46577,0.36219 c -0.0322,0.0386 -0.0926,0.0856 -0.17305,0.14604 -0.0688,0.0579 -0.16148,0.13638 -0.27599,0.23288 -1.98652,1.62748 -3.55115,2.77652 -4.69414,3.44751 -1.13128,0.67066 -2.12136,1.01696 -2.97544,1.03723 -0.94761,0.0193 -1.72243,-0.30429 -2.32375,-0.98075 -0.58992,-0.67665 -0.90007,-1.59441 -0.92754,-2.75265 -0.0322,-1.43905 0.33581,-2.93292 1.10703,-4.48468 0.78228,-1.56379 1.82511,-3.00657 3.12836,-4.32513 1.30318,-1.31862 2.73901,-2.38158 4.31181,-3.19153 1.57254,-0.82165 3.10192,-1.25126 4.58774,-1.28658 z m -25.25593,0.49536 c 1.21672,-0.0257 1.84415,0.74439 1.88159,2.32381 0.0257,1.15824 -0.17305,2.8193 -0.60151,4.98338 l 0.0733,0.0701 1.02392,-1.25332 c 1.03665,-1.20694 1.85695,-2.10483 2.46341,-2.69283 0.61759,-0.60022 1.17034,-1.03414 1.6556,-1.30318 0.49664,-0.26955 1.0012,-0.40979 1.51599,-0.42202 0.83066,-0.0193 1.42207,0.1885 1.77191,0.62467 0.34996,0.43682 0.5391,1.20411 0.56548,2.30387 0.0129,0.45612 -0.0193,1.12993 -0.0933,2.02126 -0.11259,1.185 -0.15762,2.29988 -0.13317,3.3411 0.0257,1.16995 0.10872,2.11654 0.24253,2.83912 0.0926,0.44261 0.22774,0.88245 0.40208,1.32312 0.12673,0.41816 0.19235,0.7056 0.19621,0.85775 0.005,0.1872 -0.065,0.33324 -0.20265,0.44196 -0.35511,0.32424 -0.8284,0.60987 -1.41955,0.85768 -0.59122,0.24832 -1.08986,0.37892 -1.49933,0.38921 -0.66687,0.0129 -1.28106,-0.19814 -1.84171,-0.64139 -0.54876,-0.44325 -0.98654,-1.06503 -1.30987,-1.86506 -0.31137,-0.8003 -0.47799,-1.70822 -0.5018,-2.72602 -0.0193,-0.67858 0.0322,-1.48267 0.15311,-2.41028 l -0.0701,-0.0701 c -0.48957,0.5732 -0.88869,1.02796 -1.19684,1.36301 -0.29657,0.33453 -0.57577,0.65194 -0.83773,0.95083 -1.27481,1.5286 -2.3574,2.90557 -3.24139,4.13233 -0.33968,0.47606 -0.65002,0.89537 -0.93417,1.25332 -0.42267,0.44325 -0.90953,0.67176 -1.45945,0.68482 -0.74876,0.0193 -1.36378,-0.2509 -1.84505,-0.8012 -0.48121,-0.55068 -0.73358,-1.26844 -0.75468,-2.15758 -0.0129,-0.55004 0.0386,-1.22598 0.14603,-2.0246 0.11001,-0.79862 0.25926,-1.65064 0.44904,-2.55651 0.20072,-0.91783 0.43489,-1.85952 0.70483,-2.8258 0.28113,-0.96659 0.58735,-1.88519 0.91751,-2.75934 0.50436,-1.45179 1.13199,-2.59195 1.885,-3.41753 0.51402,-0.53911 1.14615,-0.81664 1.89497,-0.83446 z m -21.04724,0.16597 c 0.74876,-0.0193 1.45417,0.14025 2.11769,0.47542 0.66352,0.33517 1.19575,0.79052 1.59576,1.36636 0.39951,0.56419 0.60537,1.18641 0.62146,1.86499 0.0129,0.66687 -0.17756,1.36082 -0.58157,2.08443 -0.40401,0.72368 -0.92375,1.33355 -1.55588,1.82846 -0.62081,0.48314 -1.2153,0.73107 -1.78857,0.74471 -0.32745,0.006 -0.61888,-0.0579 -0.86765,-0.18978 -0.23738,-0.1351 -0.35511,-0.28499 -0.35897,-0.44904 -0.004,-0.16405 0.0386,-0.40336 0.12287,-0.72142 0.23353,-1.01227 0.34032,-1.89414 0.32231,-2.64291 -0.0193,-0.73712 -0.25476,-1.42657 -0.71474,-2.07118 -0.56355,0.41173 -0.93378,0.7359 -1.10375,0.97406 -0.43231,0.5256 -0.76053,1.11758 -0.99065,1.7786 -0.25347,0.6733 -0.37313,1.30826 -0.35898,1.90494 0.0129,0.42138 0.10937,0.75771 0.30237,1.0106 0.20457,0.24125 0.52688,0.44647 0.96408,0.6118 0.44904,0.16469 1.12048,0.33903 2.01463,0.52881 1.49445,0.32746 2.54847,0.65594 3.1649,0.98075 0.14218,0.0785 0.36284,0.24189 0.6616,0.49214 0.45611,0.46899 0.69337,1.08465 0.71145,1.84512 0.0193,0.80724 -0.21166,1.63076 -0.69486,2.47339 -0.48378,0.83092 -1.24181,1.70056 -2.27389,2.60302 -1.10066,0.97437 -2.20281,1.67849 -3.30456,2.11441 -1.10169,0.43553 -2.32478,0.66951 -3.67023,0.70141 -1.29861,0.0322 -2.32742,-0.20136 -3.0884,-0.69813 -0.74928,-0.49729 -1.13579,-1.19195 -1.15689,-2.08109 -0.0129,-0.63174 0.21551,-1.27642 0.69144,-1.93151 0.47606,-0.66687 1.07294,-1.21228 1.78857,-1.639 0.72734,-0.42717 1.44233,-0.64821 2.14433,-0.66488 0.52624,-0.0129 0.79232,0.0984 0.79785,0.3326 0.003,0.11709 -0.0701,0.31266 -0.21616,0.58478 -0.43682,0.82976 -0.64802,1.58696 -0.63174,2.27724 0.0129,0.4915 0.20522,0.95701 0.57835,1.39299 0.68945,-0.0515 1.30845,-0.39886 1.85508,-1.04392 0.55777,-0.65709 0.82893,-1.36224 0.81117,-2.111 -0.0129,-0.51466 -0.19235,-0.92066 -0.53846,-1.21679 -0.3712,-0.35382 -1.19485,-0.68964 -2.46676,-1.01066 -1.87298,-0.49407 -3.09613,-1.06849 -3.67351,-1.72205 -0.53911,-0.52559 -0.82004,-1.16281 -0.8378,-1.91157 -0.0322,-1.34545 0.42395,-2.70395 1.36307,-4.0725 0.95077,-1.36873 2.17618,-2.49745 3.67686,-3.38761 1.50036,-0.90188 3.02343,-1.36957 4.56779,-1.40624 z m 10.6948,0.0798 c 0.67858,-0.0129 1.22805,0.28048 1.65225,0.891 0.43618,0.60987 0.66765,1.41737 0.69151,2.42353 0.0322,1.48582 -0.1396,3.23508 -0.52495,5.24598 -0.37377,1.99894 -0.92124,4.08228 -1.64228,6.2533 -0.2837,0.87299 -0.64641,1.46723 -1.0838,1.78195 -0.29979,0.19428 -0.65433,0.29593 -1.06381,0.30558 h -0.0322 c -0.52753,-0.0257 -1.01266,-0.25026 -1.4561,-0.68482 -0.44389,-0.45805 -0.76749,-0.95231 -0.96743,-1.48602 -0.18849,-0.54553 -0.29207,-1.25197 -0.31266,-2.11769 -0.045,-1.93042 0.25798,-4.1138 0.91423,-6.55258 0.66758,-2.45067 1.44703,-4.23268 2.33372,-5.34241 0.3519,-0.46513 0.84925,-0.70277 1.49271,-0.71808 z m -26.80518,0.30236 c 0.74877,-0.0193 1.45417,0.1396 2.1177,0.47541 0.66352,0.33518 1.19574,0.79052 1.59576,1.36636 0.3995,0.56419 0.60537,1.18642 0.62145,1.865 0.0129,0.66686 -0.17756,1.36075 -0.58156,2.08443 -0.40401,0.72367 -0.92375,1.33355 -1.55588,1.82845 -0.62081,0.48314 -1.21531,0.73108 -1.78857,0.74472 -0.32745,0.006 -0.61502,-0.0579 -0.86437,-0.18978 -0.23739,-0.1351 -0.35833,-0.285 -0.36219,-0.44904 -0.004,-0.16405 0.0386,-0.40337 0.12287,-0.72143 0.23353,-1.01227 0.34032,-1.8942 0.32231,-2.64297 -0.0193,-0.73705 -0.25476,-1.4265 -0.71474,-2.07111 -0.56419,0.41172 -0.93043,0.7359 -1.1004,0.97405 -0.43231,0.5256 -0.76388,1.11759 -0.994,1.7786 -0.25347,0.67324 -0.37313,1.30827 -0.35898,1.90495 0.0129,0.42138 0.10937,0.75764 0.30237,1.0106 0.20457,0.24124 0.52688,0.44646 0.96408,0.6118 0.44904,0.16469 1.12048,0.34224 2.01464,0.53203 1.49444,0.32745 2.54846,0.65252 3.16489,0.9774 0.14218,0.0785 0.36284,0.24189 0.6616,0.49214 0.45611,0.46898 0.69337,1.08458 0.71145,1.84505 0.0193,0.80731 -0.21166,1.63083 -0.69486,2.47345 -0.48378,0.83086 -1.2418,1.70057 -2.27389,2.60302 -1.10066,0.97432 -2.2028,1.6785 -3.30456,2.11435 -1.10169,0.43617 -2.32478,0.66957 -3.67023,0.70148 -1.29861,0.0322 -2.32742,-0.20136 -3.0884,-0.69813 -0.74928,-0.49729 -1.13579,-1.19196 -1.15689,-2.08109 -0.0129,-0.63175 0.21551,-1.27642 0.69144,-1.93152 0.47606,-0.66687 1.07294,-1.21228 1.78857,-1.63899 0.72734,-0.42717 1.44233,-0.64822 2.14433,-0.66488 0.52624,-0.0129 0.79232,0.0984 0.79785,0.3326 0.003,0.11708 -0.0701,0.31265 -0.21616,0.58542 -0.43682,0.82976 -0.64802,1.58695 -0.63174,2.27724 0.0129,0.4915 0.20522,0.95695 0.57835,1.39293 0.68945,-0.0515 1.30845,-0.39887 1.85508,-1.04386 0.55777,-0.65709 0.82893,-1.3623 0.81117,-2.11107 -0.0129,-0.51466 -0.19235,-0.9206 -0.53846,-1.21672 -0.3712,-0.35383 -1.19485,-0.68964 -2.46676,-1.01066 -1.87297,-0.49407 -3.09613,-1.0685 -3.67351,-1.72205 -0.5391,-0.52559 -0.82004,-1.16281 -0.8378,-1.91157 -0.0322,-1.34545 0.42395,-2.70402 1.36307,-4.0725 0.95077,-1.36873 2.17618,-2.49745 3.67686,-3.38761 1.50036,-0.90188 3.02349,-1.36958 4.56779,-1.40625 z m -15.09643,0.28563 c 1.09976,-0.0257 1.96967,0.30687 2.60643,0.994 0.64815,0.6753 0.98506,1.61906 1.01394,2.83577 0.0193,0.94769 -0.20651,1.94387 -0.68482,2.98541 -0.46705,1.04122 -1.17246,2.0479 -2.12104,3.01861 -0.77668,0.81445 -1.54558,1.45198 -2.30715,1.91492 -0.74992,0.46255 -1.41145,0.70109 -1.98472,0.71473 -0.25733,0.006 -0.52238,-0.0515 -0.79457,-0.17627 0.14539,0.6989 0.60923,1.03922 1.39299,1.02063 0.87743,-0.0193 2.00479,-0.56291 3.38427,-1.62568 0.8048,-0.6163 1.34822,-0.92748 1.62903,-0.93417 0.35125,-0.006 0.68205,0.0791 0.99065,0.25926 0.3088,0.18013 0.46384,0.36927 0.46898,0.5687 0.005,0.21037 -0.15761,0.49021 -0.48892,0.8378 -0.60537,0.63496 -1.3046,1.25918 -2.09775,1.87497 -0.79335,0.60408 -1.56116,1.11372 -2.30053,1.52924 -0.73956,0.40401 -1.48087,0.7323 -2.22403,0.98409 -0.74349,0.23996 -1.40637,0.36477 -1.99135,0.37892 -1.46247,0.0322 -2.64342,-0.35061 -3.5406,-1.16023 -0.89743,-0.82153 -1.3632,-1.92894 -1.39627,-3.32116 -0.0257,-1.06464 0.17692,-2.26913 0.60151,-3.61368 0.43618,-1.35658 1.03247,-2.63126 1.78857,-3.81986 0.89178,-1.39074 1.99739,-2.55612 3.32116,-3.50065 1.63527,-1.1392 3.21315,-1.72919 4.73403,-1.76528 z m 76.43955,0.92755 c -0.45612,0.0129 -1.14685,0.51723 -2.07118,1.52262 -0.58157,0.64589 -1.12305,1.40894 -1.62896,2.28721 -0.50565,0.87826 -0.89499,1.75363 -1.16693,2.6263 -0.27212,0.87273 -0.40207,1.65347 -0.38535,2.34376 0.0129,0.67858 0.19622,1.01208 0.53525,1.00397 0.32745,-0.006 1.13752,-0.57449 2.4335,-1.70545 0.57577,-0.52109 1.52719,-1.28607 2.81917,-2.26727 l -0.0322,-0.0322 c -0.0695,0.0257 -0.16212,0.0386 -0.27921,0.0386 -0.22194,0.0257 -0.50179,0.0515 -0.84114,0.0579 -0.59636,0.0129 -0.89564,-0.0901 -0.90091,-0.31265 -0.003,-0.11709 0.0682,-0.25797 0.21615,-0.42524 0.43296,-0.51337 0.79734,-1.18481 1.09378,-2.01129 0.30816,-0.82673 0.47285,-1.57299 0.49215,-2.24069 -0.004,-0.16405 0.003,-0.30944 0.0257,-0.43875 0.0129,-0.045 0.0193,-0.0881 0.0193,-0.12287 0.0129,-0.0386 0.0129,-0.0663 0.0129,-0.0901 -0.004,-0.16405 -0.11709,-0.24125 -0.33904,-0.2361 z m -77.85242,1.67219 c -0.37441,0.006 -0.92921,0.84533 -1.66222,2.51327 -0.43295,1.00533 -0.78164,2.01058 -1.05055,3.01198 -0.25732,0.98943 -0.37956,1.83952 -0.36219,2.55322 0.006,0.24575 0.0643,0.59637 0.16598,1.05049 0.52946,-0.3757 0.93128,-0.74767 1.20347,-1.117 0.60215,-0.77521 1.06039,-1.65875 1.37632,-2.6496 0.25347,-0.64988 0.4484,-1.37504 0.58157,-2.17418 0.13317,-0.7992 0.18914,-1.54378 0.17305,-2.23407 -0.0129,-0.64345 -0.15632,-0.96048 -0.42523,-0.95411 z m -39.98669,4.28524 c -0.045,0.15312 -0.0843,0.3236 -0.12609,0.51209 -0.045,0.18849 -0.0868,0.36348 -0.12996,0.52881 -0.50565,1.87323 -0.97907,3.39514 -1.41955,4.56445 -0.42846,1.16911 -0.89069,2.1626 -1.3863,2.98206 -0.28114,0.49858 -0.6899,1.02951 -1.22676,1.59242 1.42593,0.39951 2.43884,0.65677 3.03855,0.77128 0.6118,0.11452 1.21517,0.16405 1.81186,0.1499 0.69028,-0.0193 1.29675,-0.13124 1.81848,-0.34225 0.53332,-0.22323 1.02887,-0.56677 1.48601,-1.03395 0.67421,-0.69492 1.21833,-1.51715 1.62903,-2.46342 0.41044,-0.9462 0.60601,-1.85856 0.58542,-2.73599 -0.0257,-0.95939 -0.37763,-1.76258 -1.06052,-2.41362 -0.33517,-0.31973 -0.71003,-0.56548 -1.12362,-0.73133 -0.40208,-0.16598 -0.95914,-0.29915 -1.67554,-0.39886 -0.65825,-0.11323 -1.11951,-0.22517 -1.37967,-0.33582 -0.25991,-0.11065 -0.54104,-0.32423 -0.84109,-0.64493 z" /><text
       xml:space="preserve"
       style="font-style:normal;font-variant:normal;font-weight:normal;font-stretch:normal;font-size:86.0188px;font-family:Forte;-inkscape-font-specification:Forte;fill:#ffffff;fill-opacity:1;stroke:#000000;stroke-width:0;stroke-dasharray:none"
       x="352.61179"
       y="611.92389"
       id="text2"><tspan
         sodipodi:role="line"
         id="tspan2"
         style="font-style:normal;font-variant:normal;font-weight:normal;font-stretch:normal;font-family:Haettenschweiler;-inkscape-font-specification:Haettenschweiler;text-align:center;text-anchor:middle;fill:#ffffff;stroke-width:0"
         x="352.61179"
         y="611.92389"
         dy="35.491375">WAVERLEY BAPTIST </tspan><tspan
         sodipodi:role="line"
         style="font-style:normal;font-variant:normal;font-weight:normal;font-stretch:normal;font-family:Haettenschweiler;-inkscape-font-specification:Haettenschweiler;text-align:center;text-anchor:middle;fill:#ffffff;stroke-width:0"
         x="352.61179"
         y="727.59863"
         id="tspan3">CHURCH</tspan></text></g></svg>
